<svg xmlns="http://www.w3.org/2000/svg" width="960" height="220" viewBox="0 0 960 220">
  <defs>
    <linearGradient id="sky" x1="0" y1="0" x2="0" y2="1">
      <stop offset="0" stop-color="#f6efff"/>
      <stop offset="1" stop-color="#d8c6ff"/>
    </linearGradient>
  </defs>
  <rect width="960" height="220" fill="url(#sky)"/>
  <g fill="rgba(255,255,255,0.65)">
    <path d="M120 70c20-22 54-18 68 0 8-12 26-18 42-10 12 6 18 18 18 30H120z"/>
    <path d="M540 56c24-20 56-14 66 8 10-10 28-12 40-2 10 8 14 22 10 34H540z"/>
    <path d="M780 86c14-20 44-20 58-2 10-10 26-12 38-2 12 10 14 28 6 40H780z"/>
  </g>
  <g fill="#b38bff" opacity="0.32">
    <path d="M0 175c120-55 230 12 340-12s170-58 280-22 150 35 220 18 110-20 120-4v65H0z"/>
  </g>
</svg>
