<svg xmlns="http://www.w3.org/2000/svg" width="960" height="220" viewBox="0 0 960 220">
  <defs>
    <linearGradient id="sky" x1="0" y1="0" x2="0" y2="1">
      <stop offset="0" stop-color="#e9fbff"/>
      <stop offset="1" stop-color="#bdeaff"/>
    </linearGradient>
  </defs>
  <rect width="960" height="220" fill="url(#sky)"/>
  <g fill="rgba(255,255,255,0.7)">
    <path d="M140 78c0-16 14-28 32-28 10 0 20 4 26 10 6-12 18-20 32-20 20 0 36 16 36 36 0 2 0 4-1 6H140z"/>
    <path d="M580 66c0-14 12-25 28-25 8 0 16 3 20 8 6-10 16-16 28-16 18 0 32 14 32 32 0 2 0 4-1 6H580z"/>
  </g>
  <g fill="#39c0e0" opacity="0.26">
    <path d="M0 175c140-55 250 15 370-10s190-62 310-24 170 35 280 18v65H0z"/>
  </g>
</svg>
