<svg xmlns="http://www.w3.org/2000/svg" width="960" height="220" viewBox="0 0 960 220">
  <defs>
    <linearGradient id="sky" x1="0" y1="0" x2="0" y2="1">
      <stop offset="0" stop-color="#fff6e6"/>
      <stop offset="1" stop-color="#ffd7a3"/>
    </linearGradient>
  </defs>
  <rect width="960" height="220" fill="url(#sky)"/>
  <g fill="rgba(255,255,255,0.55)">
    <ellipse cx="170" cy="58" rx="60" ry="18"/>
    <ellipse cx="520" cy="44" rx="70" ry="20"/>
    <ellipse cx="820" cy="70" rx="58" ry="18"/>
  </g>
  <g fill="#f2b55c" opacity="0.42">
    <path d="M0 176c100-30 200 10 300-10s170-40 260-20 170 25 240 15 120-15 160-5v64H0z"/>
  </g>
  <g fill="#d98a2a" opacity="0.24">
    <path d="M0 198c120-25 240 18 360 2s210-34 320-18 190 22 280 10v28H0z"/>
  </g>
</svg>
