<svg xmlns="http://www.w3.org/2000/svg" width="160" height="96" viewBox="0 0 160 96">
  <defs>
    <linearGradient id="g" x1="0" y1="0" x2="1" y2="0">
      <stop offset="0" stop-color="#7be3ff"/>
      <stop offset="1" stop-color="#2aa7ff"/>
    </linearGradient>
    <filter id="s" x="-20%" y="-20%" width="140%" height="140%">
      <feDropShadow dx="0" dy="3" stdDeviation="2" flood-color="#000" flood-opacity="0.25"/>
    </filter>
  </defs>
  <g filter="url(#s)">
    <path d="M18 58c24-26 46 22 70 0s46 22 70 0" fill="none" stroke="url(#g)" stroke-width="18" stroke-linecap="round"/>
    <path d="M18 58c24-26 46 22 70 0s46 22 70 0" fill="none" stroke="rgba(255,255,255,0.55)" stroke-width="6" stroke-linecap="round"/>
    <g transform="translate(120 20)">
      <ellipse cx="20" cy="30" rx="18" ry="16" fill="#2aa7ff"/>
      <circle cx="15" cy="28" r="3.2" fill="#1a1a1a"/>
      <circle cx="27" cy="28" r="3.2" fill="#1a1a1a"/>
      <path d="M20 35c-6 6-10 10-12 14" stroke="#ff4d6d" stroke-width="4" stroke-linecap="round"/>
      <path d="M20 35c6 6 10 10 12 14" stroke="#ff4d6d" stroke-width="4" stroke-linecap="round"/>
    </g>
  </g>
</svg>
