<svg xmlns="http://www.w3.org/2000/svg" width="96" height="96" viewBox="0 0 96 96">
  <defs>
    <linearGradient id="g" x1="0" y1="0" x2="0" y2="1">
      <stop offset="0" stop-color="#8ddf9a"/>
      <stop offset="1" stop-color="#3dbb6b"/>
    </linearGradient>
    <filter id="s" x="-20%" y="-20%" width="140%" height="140%">
      <feDropShadow dx="0" dy="3" stdDeviation="2" flood-color="#000" flood-opacity="0.25"/>
    </filter>
  </defs>
  <g filter="url(#s)">
    <ellipse cx="48" cy="52" rx="24" ry="22" fill="url(#g)"/>
    <ellipse cx="48" cy="30" rx="16" ry="14" fill="#66d68a"/>
    <circle cx="42" cy="28" r="3.2" fill="#1a1a1a"/>
    <circle cx="55" cy="28" r="3.2" fill="#1a1a1a"/>
    <path d="M37 59c6 6 16 6 22 0" stroke="#1b6b43" stroke-width="4" stroke-linecap="round" fill="none"/>
    <g stroke="#1b6b43" stroke-width="4" stroke-linecap="round">
      <path d="M26 54l-10 0"/>
      <path d="M26 62l-10 6"/>
      <path d="M70 54l10 0"/>
      <path d="M70 62l10 6"/>
    </g>
    <g stroke="#1b6b43" stroke-width="3.5" stroke-linecap="round">
      <path d="M40 16c-6-8-14-6-16-2"/>
      <path d="M56 16c6-8 14-6 16-2"/>
    </g>
  </g>
</svg>
